<?xml version="1.0" standalone="no"?>
<!DOCTYPE svg PUBLIC "-//W3C//DTD SVG 20010904//EN"
 "http://www.w3.org/TR/2001/REC-SVG-20010904/DTD/svg10.dtd">
<svg version="1.0" xmlns="http://www.w3.org/2000/svg"
 width="500.000000pt" height="500.000000pt" viewBox="0 0 500.000000 500.000000"
 preserveAspectRatio="xMidYMid meet">
<metadata>
Created by potrace 1.16, written by Peter Selinger 2001-2019
</metadata>
<g transform="translate(0.000000,500.000000) scale(0.100000,-0.100000)"
fill="#000000" stroke="none">
<path d="M4296 4543 c-13 -98 -19 -330 -8 -337 10 -6 14 6 28 89 7 42 37 110
53 120 20 12 28 -30 23 -114 -4 -70 -2 -89 11 -99 13 -12 18 -9 31 17 21 40
20 64 -1 26 -14 -25 -18 -27 -21 -11 -2 10 1 53 7 96 21 141 -18 171 -92 70
l-18 -25 5 25 c3 14 8 57 11 95 6 56 4 74 -8 83 -12 10 -15 5 -21 -35z"/>
<path d="M372 4428 l3 -153 25 0 c22 0 25 5 28 44 2 25 9 53 16 63 11 16 17
12 59 -47 l47 -65 100 0 100 0 0 30 c0 23 -4 30 -20 30 -19 0 -20 7 -20 100 0
93 1 100 20 100 15 0 20 7 20 25 0 24 -2 25 -70 25 -68 0 -70 -1 -70 -25 0
-18 5 -25 20 -25 19 0 20 -7 20 -100 0 -92 -2 -100 -19 -100 -13 0 -21 -8 -23
-22 -2 -18 -13 -8 -60 57 l-57 78 41 51 c23 28 48 59 56 69 14 16 12 17 -21
17 -33 0 -41 -6 -87 -66 l-50 -67 0 67 0 66 -30 0 -31 0 3 -152z"/>
<path d="M760 4555 c0 -22 4 -25 40 -25 l39 0 3 -127 c3 -120 4 -128 23 -128
19 0 20 8 23 128 l3 127 39 0 c36 0 40 3 40 25 l0 25 -105 0 -105 0 0 -25z"/>
<path d="M3494 4450 c-6 -84 -14 -105 -29 -80 -3 6 -17 10 -30 10 -39 0 -60
-43 -60 -120 0 -46 5 -74 18 -93 19 -29 54 -36 75 -15 10 10 15 10 21 -1 6
-10 14 -5 30 17 11 17 21 35 21 41 0 21 15 11 28 -19 18 -40 56 -49 86 -21 27
25 81 120 73 128 -3 3 -15 -15 -27 -39 -26 -50 -58 -88 -76 -88 -25 0 -23 19
6 50 30 32 49 96 42 138 -5 28 -36 45 -63 37 -23 -8 -58 -77 -59 -114 0 -27
-36 -107 -52 -117 -7 -5 -9 5 -5 27 16 95 39 319 34 333 -14 37 -26 10 -33
-74z"/>
<path d="M4484 4435 c-21 -32 -30 -133 -15 -177 16 -47 54 -66 78 -38 17 20
35 27 31 13 -2 -5 1 -10 7 -11 5 -2 16 11 23 30 11 28 11 31 -1 16 -19 -24
-28 -22 -23 5 12 69 17 175 8 181 -5 3 -13 -2 -17 -12 -6 -16 -7 -16 -16 1
-15 25 -56 21 -75 -8z"/>
<path d="M4150 4398 c-11 -24 -20 -54 -20 -67 0 -30 -40 -121 -53 -121 -5 0
-6 10 -3 23 4 12 9 59 13 104 5 72 4 83 -11 89 -24 9 -61 -13 -76 -45 -13 -27
-14 -26 -24 22 -11 47 -23 30 -25 -35 -1 -47 -9 -77 -29 -115 -15 -29 -30 -53
-34 -53 -10 0 -10 -6 3 86 10 76 7 124 -10 124 -11 0 -23 -150 -15 -200 8 -50
23 -48 49 8 23 48 35 53 35 15 0 -16 4 -34 9 -42 6 -9 14 11 25 61 16 74 47
138 66 138 7 0 8 -34 4 -99 -5 -73 -4 -100 6 -106 16 -10 39 14 55 61 11 32
14 36 20 19 15 -50 32 -70 57 -73 30 -4 72 36 74 69 2 26 -1 24 -25 -17 -28
-47 -62 -45 -73 6 -10 43 -1 122 16 146 17 23 39 8 33 -22 -2 -13 1 -28 8 -34
9 -8 14 -3 18 20 11 51 -8 80 -51 80 -17 0 -28 -10 -42 -42z"/>
<path d="M1093 2310 c-26 -11 -41 -56 -26 -79 5 -9 29 -23 51 -31 61 -21 56
-44 -8 -37 -42 5 -50 3 -50 -10 0 -27 -12 -7 -46 75 -26 64 -36 77 -55 77 -18
0 -27 -12 -50 -65 -15 -36 -30 -73 -33 -84 -4 -17 -6 -17 -20 -3 -18 17 -23
117 -6 117 6 0 10 9 10 20 0 17 -7 20 -50 20 -43 0 -50 -3 -50 -20 0 -11 5
-20 10 -20 6 0 10 -25 10 -55 0 -43 -3 -55 -16 -55 -10 0 -14 -7 -12 -22 3
-21 9 -23 86 -26 68 -2 82 0 82 13 0 11 11 15 40 15 29 0 40 -4 40 -15 0 -10
10 -15 30 -15 17 0 30 5 30 10 0 7 6 7 19 0 29 -15 83 -12 109 6 15 10 22 25
22 49 0 37 -21 58 -72 70 -42 11 -22 27 23 20 35 -6 39 -5 39 14 0 11 -3 22
-8 25 -17 11 -79 15 -99 6z"/>
<path d="M364 2293 c2 -11 14 -20 30 -23 l28 -5 -26 -24 c-34 -32 -33 -44 2
-37 34 7 57 -6 48 -29 -5 -14 -15 -16 -46 -12 -30 4 -40 1 -45 -11 -16 -42 82
-58 129 -21 35 28 35 70 -1 98 l-26 21 21 23 c12 13 22 26 22 30 0 4 -31 7
-69 7 -60 0 -69 -2 -67 -17z"/>
<path d="M577 2213 l1 -98 28 -3 c86 -11 144 31 144 102 0 37 -5 48 -31 70
-25 21 -41 26 -87 26 l-57 0 2 -97z"/>
<path d="M4976 1941 c-4 -6 -4 -11 1 -12 4 0 -3 -5 -17 -10 -16 -7 -21 -12
-13 -17 17 -10 -32 -63 -51 -56 -8 3 -17 0 -22 -7 -5 -8 -3 -10 6 -4 8 5 11 4
6 -3 -3 -5 0 -13 6 -16 7 -3 1 -3 -13 0 -15 3 -30 1 -33 -5 -5 -7 -1 -8 10 -4
12 4 15 3 10 -5 -4 -7 -20 -12 -36 -12 -23 0 -33 7 -46 33 -19 36 -30 24 -15
-16 11 -28 13 -29 76 -28 l40 0 -45 -14 c-35 -10 -39 -13 -20 -15 20 -1 18 -4
-15 -14 -42 -12 -36 -29 8 -20 21 3 25 1 21 -11 -4 -11 -13 -13 -28 -9 -28 9
-43 12 -33 7 13 -8 8 -23 -8 -23 -8 0 -15 -4 -15 -10 0 -5 7 -10 15 -10 8 0
15 5 15 10 0 6 7 10 16 10 14 0 14 -3 4 -15 -7 -8 -9 -15 -5 -15 4 0 13 8 20
17 12 16 15 16 34 -7 17 -21 20 -22 14 -5 -3 11 -10 23 -15 26 -5 3 0 15 11
28 14 16 21 18 24 9 3 -7 6 2 6 20 1 39 8 40 44 7 22 -22 25 -29 16 -46 -7
-14 -17 -18 -32 -15 -12 3 -16 3 -9 0 19 -9 14 -34 -7 -34 -14 0 -18 -5 -14
-20 4 -16 2 -19 -11 -14 -12 5 -19 0 -23 -15 -3 -12 -11 -20 -18 -17 -12 4
-29 -43 -19 -53 2 -2 30 24 62 58 32 33 66 61 75 61 20 0 23 16 5 23 -7 3 -1
6 15 6 24 1 27 4 27 39 0 26 -3 33 -9 23 -8 -12 -13 -12 -35 2 -33 22 -50 53
-34 63 7 4 8 3 4 -4 -4 -7 -2 -12 4 -12 7 0 14 9 17 20 3 11 9 17 14 14 5 -3
9 0 9 5 0 6 7 11 15 11 11 0 15 11 15 43 0 46 -13 77 -24 58z"/>
<path d="M4280 1602 c0 -24 17 -46 84 -113 46 -46 100 -99 120 -117 20 -19 36
-38 36 -43 0 -5 7 -9 15 -9 8 0 15 -4 15 -9 0 -5 29 -39 65 -76 l65 -68 160
161 160 162 0 60 c0 33 -2 60 -5 60 -9 0 -55 -52 -55 -61 0 -5 -7 -6 -15 -2
-10 3 -15 1 -13 -7 2 -7 -8 -17 -22 -21 -17 -5 -20 -7 -7 -8 17 -1 17 -2 3
-17 -9 -8 -20 -13 -26 -9 -6 4 -7 -1 -3 -12 6 -16 5 -16 -11 -4 -9 8 -24 27
-32 43 -17 33 -34 37 -34 8 0 -11 7 -20 15 -20 8 0 15 -4 15 -9 0 -5 7 -17 16
-26 11 -11 13 -20 7 -26 -7 -7 -16 -3 -27 12 -12 18 -16 19 -16 7 0 -9 6 -19
13 -22 10 -5 10 -7 0 -12 -7 -3 -13 -10 -13 -15 0 -5 -8 -18 -17 -29 -19 -22
-63 -27 -63 -8 0 6 -3 8 -6 5 -4 -4 -1 -13 5 -21 13 -16 -1 -56 -19 -56 -5 0
-16 -8 -26 -17 -16 -16 -18 -16 -35 6 -20 24 -18 28 29 76 12 12 22 27 22 34
0 6 7 11 15 11 8 0 15 7 15 15 0 21 37 19 49 -2 5 -10 12 -15 15 -12 3 2 -5
17 -18 32 l-23 26 -43 -39 c-47 -42 -74 -50 -84 -25 -4 12 -10 13 -24 6 -16
-8 -18 -6 -18 20 0 20 4 28 12 25 22 -8 22 8 1 28 -18 17 -20 17 -14 2 6 -15
2 -16 -31 -10 -20 3 -43 13 -50 22 -6 9 -20 17 -29 18 -47 7 -65 16 -60 29 4
10 -1 12 -17 9 -13 -2 -29 3 -36 11 -7 8 -15 13 -19 11 -4 -3 -7 7 -6 22 0 17
-6 28 -17 30 -14 3 -18 -3 -18 -26z"/>
</g>
</svg>
