<?xml version="1.0" standalone="no"?>
<!DOCTYPE svg PUBLIC "-//W3C//DTD SVG 20010904//EN"
 "http://www.w3.org/TR/2001/REC-SVG-20010904/DTD/svg10.dtd">
<svg version="1.0" xmlns="http://www.w3.org/2000/svg"
 width="500.000000pt" height="500.000000pt" viewBox="0 0 500.000000 500.000000"
 preserveAspectRatio="xMidYMid meet">
<metadata>
Created by potrace 1.16, written by Peter Selinger 2001-2019
</metadata>
<g transform="translate(0.000000,500.000000) scale(0.100000,-0.100000)"
fill="#000000" stroke="none">
<path d="M1866 4991 c-3 -5 12 -33 34 -62 47 -62 54 -94 10 -47 -16 18 -30 30
-30 26 0 -4 7 -14 16 -23 16 -15 14 -19 -22 -55 -40 -40 -71 -49 -92 -28 -9 9
-12 9 -12 0 0 -27 40 -34 103 -17 19 5 19 4 -3 -9 -14 -9 -36 -16 -50 -17 -22
-1 -21 -2 8 -10 37 -11 35 -21 -8 -39 -28 -12 -29 -14 -13 -27 10 -8 12 -12 6
-8 -7 3 -13 1 -13 -5 0 -6 -6 -8 -12 -4 -7 4 -4 -3 7 -15 11 -13 47 -37 80
-53 33 -17 63 -35 66 -41 4 -5 23 -11 43 -12 38 -2 60 -15 39 -22 -8 -3 -11
-14 -8 -26 6 -26 -6 -41 -59 -81 -34 -26 -41 -28 -60 -16 -19 12 -20 11 -8 -2
10 -13 9 -16 -8 -21 -11 -3 -23 -1 -26 5 -3 5 -11 2 -18 -7 -11 -15 -16 -15
-53 -2 l-42 14 15 -29 c21 -41 92 -116 124 -133 25 -13 28 -12 54 21 15 19 24
39 21 44 -3 6 -2 10 3 10 5 0 9 7 9 15 0 8 -4 12 -9 9 -4 -3 -8 2 -8 10 0 8 9
18 20 21 11 3 20 10 20 15 0 5 -8 7 -17 3 -19 -7 -18 -5 11 17 17 13 18 13 11
1 -6 -11 -4 -13 9 -8 10 4 19 7 22 7 2 0 1 7 -2 15 -4 8 -1 15 5 15 6 0 11 -4
11 -10 0 -5 21 2 46 15 26 14 61 25 78 25 51 0 76 11 82 35 6 23 46 41 65 30
5 -4 11 0 14 7 4 10 55 12 250 9 135 -1 257 0 270 3 22 6 25 12 25 56 0 31 -8
63 -21 86 -21 39 -19 41 32 20 12 -5 18 0 23 20 8 29 -20 68 -55 79 -11 4 -16
12 -12 21 4 12 18 15 53 12 35 -2 46 0 43 10 -3 6 -1 12 4 12 5 0 15 -6 22
-12 10 -11 19 -6 44 23 35 39 95 84 103 76 3 -2 -8 -16 -24 -29 -16 -14 -35
-35 -41 -47 -12 -21 -11 -22 8 -11 40 21 61 -35 33 -87 -10 -19 -10 -22 2 -17
30 11 44 -137 19 -202 -11 -29 18 -12 32 19 14 29 15 30 12 6 -3 -24 0 -28 32
-32 20 -3 275 -6 567 -7 l532 0 -5 44 c-8 69 37 155 127 244 54 54 79 72 100
72 18 0 30 7 38 23 8 17 11 18 11 5 1 -9 -3 -20 -9 -23 -14 -9 -12 -21 5 -38
11 -12 13 -29 6 -90 -5 -41 -14 -83 -20 -93 -11 -17 -11 -17 -6 4 9 31 -2 27
-38 -14 -53 -60 -107 -109 -130 -115 -45 -12 198 -22 283 -12 50 7 86 7 88 2
2 -5 10 -9 18 -9 12 0 14 -48 14 -302 l1 -303 41 -20 c44 -21 87 -69 74 -82
-4 -4 -11 -1 -17 7 -7 11 -8 9 -7 -10 2 -19 -6 -31 -44 -55 l-47 -30 0 -114
c-1 -106 1 -117 22 -139 12 -13 18 -23 12 -22 -34 7 -6 -27 35 -43 10 -4 8 -6
-6 -6 -12 -1 -27 6 -34 14 -7 8 -16 15 -21 15 -4 0 -8 -135 -9 -300 l0 -299
62 -4 63 -3 -62 -2 -63 -2 0 -624 0 -625 33 -22 c17 -13 69 -59 115 -103 l82
-80 0 1812 0 1812 -1118 0 -1118 0 -11 -30 c-7 -18 -24 -35 -44 -44 -19 -8
-29 -15 -23 -15 8 -1 10 -14 7 -37 -3 -20 -2 -57 2 -83 7 -46 7 -46 18 -18
l12 27 12 -25 c9 -21 8 -29 -7 -48 -18 -22 -19 -22 -33 -3 -8 11 -12 29 -9 40
4 21 4 21 -11 1 -15 -19 -16 -19 -23 -1 -4 10 -2 39 4 64 6 28 7 53 1 62 -7
13 -8 13 -9 0 0 -10 -3 -11 -8 -4 -10 16 -60 26 -67 14 -3 -5 -15 -10 -26 -10
-10 0 -19 -4 -19 -9 0 -5 -10 -7 -21 -4 -14 4 -27 0 -35 -11 -10 -14 -19 -16
-38 -10 -41 14 -33 28 20 37 27 4 54 14 59 20 15 19 54 17 47 -3 -5 -13 -3
-13 11 -1 10 8 16 19 14 25 -5 15 32 46 55 46 10 0 18 5 18 10 0 6 -84 10
-231 10 -151 0 -228 -3 -224 -10 4 -6 -11 -10 -39 -10 -25 0 -48 5 -51 10 -8
13 -232 13 -239 1z m427 -88 c9 -3 17 -13 18 -22 0 -10 2 -11 6 -3 5 13 34 17
32 5 -1 -5 0 -10 1 -13 9 -25 6 -38 -8 -32 -12 4 -11 -3 7 -31 22 -35 21 -57
-1 -57 -7 0 -7 4 1 14 9 10 7 17 -6 27 -15 12 -16 12 -11 -2 5 -14 3 -15 -18
-5 -13 6 -24 14 -24 19 0 4 -9 7 -21 7 -14 0 -19 5 -16 15 7 17 -9 30 -18 16
-7 -12 -55 27 -55 45 0 7 7 19 15 28 12 11 22 12 48 4 17 -5 40 -12 50 -15z"/>
<path d="M350 4892 c-25 -8 -30 -25 -10 -39 19 -14 20 -22 3 -63 -7 -15 -7
-29 -2 -34 10 -11 13 -33 2 -23 -3 4 -12 2 -20 -4 -10 -9 -13 -6 -13 14 0 14
5 29 11 33 8 4 7 9 -2 15 -8 4 -14 12 -14 16 -1 17 -24 47 -31 41 -4 -4 -2
-14 4 -21 6 -7 10 -23 7 -35 -2 -12 1 -22 6 -22 12 0 2 -39 -13 -55 -6 -6 -7
-4 -3 8 5 10 2 17 -5 17 -7 0 -10 7 -6 15 3 8 2 14 -2 14 -21 -3 -32 3 -32 17
0 8 -4 13 -8 10 -4 -2 -13 4 -20 15 -11 18 -10 19 18 14 16 -3 30 -1 30 4 0
14 -28 21 -34 8 -3 -9 -5 -8 -5 1 -1 7 -5 10 -11 7 -5 -3 -10 -1 -10 4 0 6 6
11 14 11 7 0 20 8 27 18 12 15 12 16 -1 6 -8 -6 -27 -14 -42 -18 -17 -4 -25
-11 -22 -20 6 -16 -26 -30 -39 -17 -12 12 -41 -14 -32 -28 7 -13 -28 -23 -50
-14 -14 5 -17 3 -12 -9 4 -12 1 -14 -14 -11 -27 7 -24 -13 4 -21 l22 -7 -22
-16 c-28 -19 -32 -69 -5 -76 16 -4 16 -5 -1 -6 -10 0 -16 -5 -12 -11 3 -5 13
-7 23 -4 14 5 14 4 2 -4 -8 -6 -18 -8 -22 -6 -4 3 -8 -2 -8 -10 0 -9 6 -16 14
-16 8 0 17 -7 20 -16 8 -20 8 -39 0 -31 -9 9 -34 -19 -34 -37 0 -23 17 -28 34
-10 20 19 46 12 46 -13 0 -12 3 -14 8 -6 9 14 54 13 49 -1 -2 -5 -9 -12 -17
-14 -9 -3 -10 0 -4 9 6 12 5 11 -10 0 -21 -17 -4 -31 28 -23 20 5 20 5 4 -12
-22 -22 -23 -36 -3 -36 9 0 20 -10 25 -22 5 -13 9 -17 9 -10 1 7 6 10 11 7 6
-3 13 1 16 9 3 9 10 16 15 16 17 0 9 -20 -16 -42 -19 -17 -24 -29 -21 -55 3
-18 1 -31 -3 -28 -5 2 -19 -4 -31 -15 -26 -22 -36 -25 -45 -10 -3 6 1 13 9 16
9 3 13 10 10 15 -3 5 -10 7 -15 4 -5 -4 -9 1 -9 9 0 19 -26 21 -33 4 -2 -7 -7
-10 -11 -7 -3 3 0 19 9 35 13 25 13 29 -1 37 -14 8 -13 10 3 22 10 7 15 16 12
19 -3 3 -14 0 -24 -8 -15 -10 -17 -17 -8 -27 6 -8 7 -23 3 -34 -6 -18 -8 -17
-23 10 l-17 30 2 -40 c1 -22 7 -43 12 -47 6 -4 11 -22 11 -40 1 -27 4 -32 20
-30 16 2 17 1 5 -7 -12 -9 -12 -11 3 -17 9 -3 14 -11 11 -16 -4 -6 2 -6 14 1
16 8 21 7 26 -5 3 -8 2 -12 -4 -9 -6 3 -10 -1 -10 -9 0 -15 -12 -21 -33 -17
-5 1 -5 -9 -1 -21 4 -13 7 -31 6 -41 -1 -23 -31 -47 -49 -40 -10 4 -13 -9 -13
-52 0 -32 4 -54 9 -50 5 3 12 1 16 -5 3 -6 -1 -13 -9 -16 -25 -10 -20 -44 7
-45 l22 0 -22 -11 c-14 -7 -23 -20 -23 -35 0 -25 21 -40 41 -27 9 5 7 10 -7
15 -18 7 -18 8 0 8 16 1 17 3 5 18 -12 15 -12 16 3 10 10 -3 20 -2 23 3 3 5
12 7 20 4 8 -4 12 -10 9 -15 -3 -5 2 -12 11 -15 9 -4 14 -13 11 -20 -3 -8 1
-14 10 -14 21 0 67 -37 55 -44 -5 -3 -12 0 -14 6 -4 10 -6 10 -6 1 -1 -7 -10
-13 -21 -13 -21 0 -54 52 -42 65 4 5 1 5 -6 1 -7 -4 -12 -1 -12 9 0 9 -5 13
-11 10 -7 -5 -5 -13 5 -24 18 -20 12 -33 -11 -24 -8 3 -2 -7 13 -22 26 -27 40
-32 86 -34 12 -1 15 -6 11 -18 -5 -12 -3 -14 7 -8 24 15 210 27 210 13 0 -4
18 -8 40 -8 33 0 40 -3 40 -20 0 -13 7 -20 19 -20 11 0 32 -15 46 -32 18 -22
25 -26 21 -13 -7 19 -6 19 11 2 15 -15 16 -19 4 -26 -8 -5 -11 -16 -8 -24 3
-8 -1 -27 -9 -43 -8 -15 -12 -34 -10 -41 3 -7 1 -13 -5 -13 -5 0 -12 7 -16 16
-5 13 -7 13 -14 2 -7 -10 -9 -10 -9 0 0 7 6 15 13 18 14 5 19 34 6 34 -4 0
-15 7 -23 16 -9 9 -16 11 -16 4 0 -6 -6 -8 -12 -4 -10 6 -10 4 0 -7 6 -7 12
-17 12 -22 0 -4 -6 -5 -12 -2 -7 4 -6 1 2 -7 8 -7 14 -23 12 -36 -2 -13 3 -31
11 -40 8 -9 18 -26 22 -37 8 -19 9 -19 12 2 3 12 -1 32 -8 45 -9 19 -9 21 2
11 7 -7 22 -13 33 -13 19 -1 20 -2 4 -13 -20 -16 -19 -46 5 -71 9 -11 17 -23
17 -27 0 -7 55 -32 75 -34 6 0 16 -4 23 -8 6 -5 17 -5 24 -1 6 4 8 3 5 -3 -8
-13 20 -38 53 -48 14 -4 30 -15 37 -24 16 -20 17 -6 2 22 -12 22 -12 22 9 4
11 -11 18 -25 16 -32 -3 -7 0 -23 6 -35 9 -17 19 -21 45 -19 19 2 37 0 41 -4
4 -4 37 -7 74 -7 58 0 71 4 109 31 35 26 52 32 96 32 53 0 54 0 77 46 24 47
91 143 153 219 19 24 35 50 35 57 0 8 9 19 20 25 11 6 20 16 19 23 -2 13 3 28
29 90 11 28 12 41 4 49 -8 8 -8 17 -1 30 5 10 6 18 2 18 -4 0 0 5 10 11 13 8
16 18 11 47 -3 20 -1 49 5 64 8 21 6 34 -10 64 -10 21 -19 47 -19 57 0 11 -9
28 -21 38 -11 9 -19 20 -17 22 7 12 -108 128 -137 138 -18 7 -38 21 -44 32
-12 18 -11 18 18 -2 21 -15 31 -18 31 -9 0 12 -88 58 -112 58 -6 0 -7 7 -4 16
3 8 -2 23 -11 32 -16 16 -16 16 -10 0 3 -10 2 -18 -2 -18 -5 0 -12 7 -15 16
-3 9 -13 14 -21 10 -8 -3 -17 0 -21 5 -3 6 -15 9 -25 6 -11 -3 -17 -1 -13 4 3
5 -4 9 -15 9 -14 0 -19 -5 -15 -15 4 -10 0 -15 -12 -15 -14 0 -15 -3 -6 -12
18 -18 14 -38 -8 -38 -21 0 -27 15 -10 23 6 3 5 4 -2 3 -7 -2 -13 -8 -13 -14
0 -16 56 -52 69 -45 5 4 1 9 -9 13 -18 6 -17 7 3 12 16 5 27 -1 42 -22 13 -18
16 -31 10 -35 -5 -3 -10 1 -10 9 0 9 -4 16 -10 16 -5 0 -10 -7 -10 -15 0 -8
-4 -15 -8 -15 -4 0 -8 -9 -9 -20 -1 -11 -10 -28 -20 -39 -15 -16 -25 -19 -48
-13 -21 6 -25 11 -16 16 11 7 11 10 0 17 -11 7 -12 12 -1 29 6 11 12 32 12 46
0 22 -3 24 -14 15 -23 -19 -27 3 -7 40 10 19 16 40 14 47 -4 9 2 10 24 2 26
-9 27 -9 9 5 -27 20 -43 19 -51 -4 -3 -11 -12 -21 -19 -24 -9 -4 -12 -18 -11
-39 l3 -33 -14 33 c-8 17 -17 32 -20 32 -3 0 -3 -4 1 -9 7 -12 -24 -43 -35
-36 -5 3 -11 1 -15 -5 -3 -5 1 -10 9 -10 22 0 20 -13 -5 -28 -12 -8 -18 -9
-15 -3 4 5 2 12 -3 15 -5 3 -11 -3 -14 -14 -3 -12 -14 -20 -26 -20 -12 0 -21
-4 -21 -10 0 -5 -7 -6 -17 -3 -9 4 -14 2 -10 -3 3 -6 -3 -15 -13 -22 -16 -10
-23 -8 -38 9 -17 17 -20 18 -25 5 -4 -9 -1 -15 6 -13 7 1 12 -7 12 -18 0 -11
-6 -19 -13 -17 -7 1 -17 -9 -24 -22 -11 -25 -38 -43 -38 -26 0 22 -19 8 -29
-20 -11 -34 -6 -60 13 -60 21 0 27 12 13 28 -10 13 -9 15 6 9 12 -4 16 -3 11
4 -4 6 0 15 7 20 27 17 29 9 10 -30 -11 -21 -17 -42 -13 -46 4 -5 2 -5 -4 -2
-6 4 -16 -5 -22 -18 -7 -14 -15 -25 -19 -24 -20 3 -29 -3 -31 -21 -4 -46 -6
-51 -18 -46 -6 2 -14 -5 -17 -16 -4 -13 -11 -19 -21 -15 -8 3 -18 2 -21 -3 -9
-15 -25 -12 -25 5 0 8 -5 15 -10 15 -7 0 -7 -7 0 -20 13 -24 4 -44 -17 -36
-11 5 -13 2 -9 -10 3 -8 6 -17 6 -20 0 -2 8 -1 18 2 14 5 14 4 2 -4 -8 -6 -18
-8 -22 -6 -4 3 -8 -4 -8 -15 0 -12 4 -21 10 -21 5 0 14 -10 21 -21 8 -15 8
-19 0 -15 -6 4 -11 2 -11 -4 0 -8 -6 -8 -21 1 -17 9 -20 18 -17 49 2 21 0 36
-5 33 -5 -3 -7 3 -6 13 2 11 1 24 -3 29 -10 16 13 103 29 109 7 3 13 0 13 -7
0 -7 11 -17 24 -23 20 -9 23 -9 19 3 -5 13 -2 13 15 4 33 -18 50 -12 19 7 -15
9 -30 24 -33 34 -3 9 -14 20 -24 23 -12 4 -17 12 -13 22 4 11 3 14 -5 9 -7 -4
-4 8 5 27 16 30 19 32 25 16 4 -11 9 -19 12 -19 8 0 -7 45 -18 52 -7 5 -7 8 2
8 20 0 59 33 55 46 -2 6 4 17 13 25 15 12 16 11 11 -11 -4 -14 -4 -19 -1 -12
3 6 13 12 22 13 11 0 12 2 5 6 -7 2 -13 9 -13 15 0 6 7 7 16 4 13 -5 15 -2 11
14 -3 11 0 23 5 27 7 4 8 1 3 -7 -5 -9 -4 -11 3 -6 7 4 12 13 12 19 0 21 120
83 134 70 3 -3 13 -2 23 1 15 6 15 8 3 17 -11 7 -5 9 22 6 21 -3 35 -1 32 4
-3 5 2 9 10 9 9 0 16 3 17 8 6 47 3 82 -7 82 -11 0 -29 85 -22 106 6 20 -69
187 -81 179 -5 -3 -11 2 -15 10 -3 8 -10 15 -16 15 -6 0 -24 14 -40 30 -32 33
-45 37 -54 18 -3 -7 -4 -4 -1 7 6 26 -9 52 -20 35 -6 -9 -10 -9 -17 1 -8 11
-9 11 -5 -1 2 -8 12 -14 22 -12 10 2 14 -1 10 -7 -10 -17 -18 -14 -57 23 l-36
34 -23 -24 c-12 -13 -25 -21 -30 -19 -13 9 -21 -15 -10 -29 6 -7 8 -16 4 -19
-3 -4 -1 -7 6 -7 7 0 11 6 8 14 -8 21 3 27 27 14 11 -7 24 -12 28 -13 16 0 30
-23 19 -29 -6 -4 -11 -2 -11 3 0 6 -7 11 -15 11 -8 0 -15 5 -15 11 0 5 -5 7
-10 4 -6 -3 -7 -18 -4 -32 5 -17 3 -24 -3 -20 -10 7 -27 -33 -18 -42 3 -2 17
8 32 23 14 15 32 25 39 22 6 -2 18 1 25 7 9 8 8 5 -1 -8 -8 -11 -19 -23 -25
-27 -7 -5 -6 -8 0 -8 6 0 16 5 23 12 16 16 21 7 11 -21 -7 -19 -12 -21 -23
-12 -12 10 -14 8 -10 -11 2 -13 2 -18 -2 -11 -3 7 -12 9 -20 6 -10 -4 -12 0
-8 11 5 13 2 15 -12 9 -11 -3 -22 -11 -26 -17 -5 -7 -8 -5 -8 6 0 11 -6 15
-19 11 -16 -4 -19 -1 -14 18 7 24 -4 21 -39 -9 -31 -26 -47 -9 -41 45 3 26 9
51 15 54 7 4 6 9 -1 13 -6 4 -11 2 -11 -3 0 -6 -4 -11 -9 -11 -5 0 -7 8 -4 18
5 19 43 28 43 10 0 -7 5 -7 14 1 7 6 14 23 14 37 0 22 -4 25 -24 20 -16 -4
-24 -2 -24 6 0 10 -2 10 -9 -1 -7 -11 -10 -11 -17 1 -5 8 -16 13 -24 10z m-90
-511 c-9 -17 -8 -20 5 -15 11 5 15 0 13 -17 -3 -20 2 -24 22 -24 14 0 33 9 43
20 12 12 10 8 -4 -14 -20 -30 -20 -32 -3 -23 10 6 28 24 38 40 14 21 25 28 42
24 14 -2 24 -11 24 -21 0 -12 -2 -13 -9 -3 -7 11 -11 11 -24 -2 -8 -9 -20 -16
-26 -16 -6 0 -11 -4 -11 -10 0 -5 5 -10 10 -10 6 0 10 -5 10 -11 0 -5 -5 -7
-12 -3 -8 5 -9 2 -5 -9 4 -10 2 -17 -4 -17 -7 0 -9 9 -6 21 3 12 1 19 -6 16
-20 -6 -19 -26 5 -50 22 -21 22 -25 8 -53 -8 -17 -20 -29 -26 -27 -12 4 -27
-24 -20 -35 2 -4 -7 -15 -20 -25 -22 -16 -26 -14 -23 11 0 4 7 6 14 4 22 -4 7
24 -19 36 -17 8 -25 7 -32 -5 -8 -13 -13 -12 -34 6 l-25 21 28 -10 c22 -8 29
-7 33 4 3 8 12 12 20 9 8 -3 14 1 14 10 0 10 -7 13 -19 10 -11 -3 -21 2 -25
12 -4 13 -2 16 9 11 8 -3 15 -1 15 4 0 6 -7 10 -16 10 -11 0 -15 6 -11 20 3
11 -1 27 -9 35 -10 10 -11 16 -3 21 6 3 15 0 20 -7 14 -23 10 -4 -6 27 -13 26
-13 30 8 52 24 25 35 15 17 -17z"/>
<path d="M2183 4436 c-18 -6 -35 -15 -39 -19 -4 -4 -18 -7 -30 -7 -24 0 -41
-16 -24 -22 6 -2 4 -14 -5 -31 -8 -16 -14 -31 -13 -35 1 -4 -11 -32 -26 -64
-27 -54 -91 -126 -103 -114 -4 3 -13 -3 -20 -14 -8 -11 -20 -20 -26 -19 -27 3
-37 -2 -37 -18 0 -14 2 -15 9 -5 13 22 21 -37 8 -65 -8 -17 -13 -20 -19 -11
-11 18 -9 -41 2 -67 8 -19 9 -19 9 -1 1 11 4 16 8 13 3 -4 12 -2 20 4 10 9 13
5 13 -20 0 -24 4 -31 19 -31 11 0 23 5 26 10 3 6 1 10 -6 10 -23 0 -1 11 30
15 17 2 31 0 31 -5 0 -6 -4 -10 -9 -10 -4 0 -6 -11 -4 -24 3 -13 -3 -52 -12
-87 -10 -35 -20 -77 -22 -92 l-5 -28 46 6 c30 4 46 3 46 -4 0 -6 -7 -11 -15
-11 -18 0 -20 -16 -2 -23 6 -3 -3 -6 -20 -6 -25 -1 -33 3 -33 17 0 13 -2 14
-9 3 -7 -10 -9 -11 -13 -1 -2 7 -12 -9 -23 -36 -23 -63 -99 -215 -133 -268
-43 -66 -147 -189 -211 -249 -201 -185 -411 -291 -680 -341 -124 -24 -359 -22
-486 3 -112 21 -270 76 -354 121 -30 17 -58 30 -63 30 -4 0 -8 -56 -8 -125 l0
-125 36 0 c41 0 38 -15 -6 -23 -16 -4 -30 -11 -30 -17 0 -6 5 -8 10 -5 6 3 10
2 10 -4 0 -5 -6 -11 -12 -14 -7 -2 -10 -8 -5 -13 4 -4 20 8 36 27 99 118 105
120 204 50 63 -45 72 -48 105 -40 21 4 55 6 77 2 22 -3 45 -5 51 -6 6 0 11 -6
11 -13 0 -7 -7 -10 -16 -7 -13 4 -13 3 -2 -5 9 -7 36 1 89 25 65 30 83 35 133
31 65 -5 118 -37 151 -95 12 -20 26 -32 34 -29 7 3 16 1 19 -4 9 -15 25 -12
25 5 0 9 -8 19 -17 22 -15 6 -14 8 7 13 14 4 24 13 22 20 -2 8 3 10 13 6 9 -3
18 -6 20 -6 2 0 1 -8 -2 -19 -8 -30 44 -61 87 -52 35 8 35 8 10 18 -14 6 -28
9 -32 6 -5 -2 -8 1 -8 6 0 6 -6 10 -12 9 -7 -2 -12 5 -10 15 2 9 -3 17 -10 17
-7 0 1 8 17 19 26 16 32 16 46 5 18 -16 57 -18 78 -5 9 6 10 10 2 16 -7 4 -19
1 -27 -6 -8 -6 -18 -9 -21 -5 -4 4 -1 11 7 16 11 7 9 10 -12 10 -15 0 -30 4
-33 10 -3 6 1 7 9 4 9 -4 16 -1 16 6 0 8 7 10 18 5 31 -12 51 -14 57 -4 4 5 3
9 -2 10 -53 3 -129 12 -132 15 -2 2 45 5 105 6 60 1 126 2 147 2 22 1 41 -2
43 -5 2 -4 -6 -29 -18 -55 -12 -27 -21 -54 -20 -61 3 -13 -37 -38 -55 -35 -6
1 -15 -2 -18 -8 -4 -6 -1 -11 6 -9 29 3 39 -2 39 -21 0 -16 -5 -19 -24 -14
-13 3 -27 1 -31 -5 -4 -8 -12 -8 -25 -1 -11 6 -21 6 -24 1 -8 -12 -96 -11 -96
2 0 6 -5 6 -12 0 -18 -15 -68 -22 -68 -11 0 6 -8 7 -17 4 -15 -6 -15 -4 2 14
10 11 13 20 7 20 -6 0 -13 -4 -17 -10 -3 -5 -11 -8 -18 -6 -7 1 -9 1 -4 -1 4
-3 7 -12 7 -20 0 -13 -3 -13 -15 -3 -20 16 -20 -4 0 -24 8 -8 15 -19 15 -24 0
-5 19 -17 41 -28 23 -10 36 -20 30 -22 -6 -2 -18 2 -27 8 -33 28 -22 -5 43
-129 l68 -131 70 -2 70 -2 -62 -3 c-35 -2 -63 -5 -63 -6 0 -2 23 -45 50 -97
28 -52 50 -97 50 -101 0 -4 28 -32 62 -63 48 -45 61 -63 61 -86 0 -16 4 -27 8
-24 10 6 43 -55 35 -64 -3 -3 -6 0 -6 6 0 7 -7 12 -16 12 -9 0 -12 5 -8 12 4
6 3 8 -4 5 -5 -4 -8 -16 -5 -27 3 -11 9 -18 13 -15 4 3 7 -1 7 -8 -1 -6 16
-47 37 -90 28 -56 41 -75 48 -65 7 10 9 10 7 -2 -3 -32 3 -48 46 -125 25 -44
46 -82 47 -85 2 -18 28 -41 38 -35 9 5 10 1 5 -14 -4 -13 -2 -21 5 -21 6 0 8
-4 5 -10 -10 -17 26 -69 44 -62 14 5 14 3 2 -11 -17 -22 2 -22 24 -1 20 21 30
12 16 -14 -14 -26 -14 -35 0 -27 5 4 19 -1 29 -10 12 -11 20 -13 25 -6 11 19
28 12 22 -8 -5 -22 28 -61 35 -41 2 8 11 8 31 1 16 -6 25 -15 22 -21 -3 -5 -2
-10 4 -10 5 0 13 5 16 10 3 6 11 10 17 10 6 0 3 -9 -7 -20 -14 -16 -15 -20 -4
-20 8 0 20 5 27 12 7 7 12 8 12 2 0 -5 -5 -15 -12 -22 -6 -6 -8 -15 -4 -19 4
-5 13 -1 19 7 12 16 62 15 52 0 -3 -5 -1 -11 4 -14 5 -4 12 -2 16 4 3 5 11 10
17 10 7 0 6 -6 -2 -15 -11 -13 -5 -14 44 -10 54 4 57 3 66 -21 7 -17 15 -24
25 -20 9 3 15 0 15 -9 0 -12 9 -14 43 -9 52 8 53 9 36 31 -13 17 -13 17 7 0
11 -9 24 -14 29 -10 4 5 5 2 0 -6 -6 -10 -2 -12 14 -6 13 4 28 1 37 -6 8 -6
17 -9 21 -6 3 4 -2 9 -11 13 -9 3 -16 12 -16 20 0 17 20 19 21 2 1 -7 5 -2 9
12 9 29 13 634 4 667 -3 12 -13 24 -21 27 -8 3 -11 1 -8 -4 3 -6 2 -10 -3 -10
-6 0 -13 7 -16 16 -5 13 -9 14 -22 3 -8 -7 -14 -8 -13 -3 1 5 -1 17 -6 27 -6
15 -10 16 -17 5 -8 -10 -9 -10 -5 2 2 8 13 16 25 18 12 2 22 8 22 13 0 13 34
11 48 -3 9 -9 12 -3 12 30 0 23 -4 42 -10 42 -5 0 -10 -5 -10 -11 0 -7 -13
-10 -33 -7 -30 3 -33 1 -29 -18 4 -24 -13 -41 -24 -23 -4 8 -3 9 4 5 7 -4 12
-2 12 3 0 6 -7 11 -15 11 -17 0 -20 25 -5 35 6 3 10 11 10 16 0 6 -4 8 -9 4
-5 -3 -12 -1 -16 5 -3 5 -11 10 -17 10 -6 0 -8 -3 -5 -7 4 -3 -1 -12 -11 -19
-15 -12 -15 -15 -2 -25 13 -9 12 -10 -3 -5 -10 3 -27 6 -38 6 -12 0 -19 7 -19
20 0 14 -5 18 -17 13 -10 -4 -14 -2 -10 4 4 7 -7 16 -27 23 -19 6 -37 17 -39
24 -3 8 -17 12 -31 11 -14 -2 -26 1 -26 5 0 5 -9 12 -20 15 -11 3 -27 13 -36
22 -11 12 -18 13 -27 4 -16 -16 -21 -15 -63 25 -22 20 -59 52 -84 72 -25 20
-64 56 -86 79 -23 23 -44 39 -48 36 -3 -4 -6 1 -6 11 0 11 -4 14 -12 10 -8 -5
-9 -2 -5 10 6 14 3 17 -8 12 -13 -5 -15 4 -13 49 2 36 7 55 16 55 8 0 12 19
12 63 0 37 6 71 14 83 8 11 19 38 25 60 11 40 52 83 111 114 13 7 32 22 42 34
31 35 78 104 78 113 0 5 -15 26 -34 46 -34 37 -34 39 -30 115 3 64 7 80 26 95
25 21 91 19 166 -4 36 -11 46 -11 65 1 55 35 76 40 155 40 66 0 82 -3 82 -15
0 -8 7 -15 16 -15 13 0 14 3 5 14 -10 12 -8 15 11 18 l23 3 -2 254 -1 253 -32
33 c-21 22 -38 31 -53 28 -24 -5 -75 32 -63 44 4 4 10 3 14 -3 4 -5 17 -11 29
-11 l22 -2 -19 49 c-27 68 -37 174 -19 196 13 16 11 17 -11 11 -14 -3 -32 -2
-40 3 -11 7 -1 10 33 10 26 0 47 -5 47 -11 0 -5 13 -22 28 -37 17 -16 35 -48
43 -77 l14 -50 7 55 c4 30 7 128 7 217 l0 162 -32 -5 -32 -5 32 15 c31 14 32
15 29 80 -3 73 -4 75 -34 81 -14 2 -22 -3 -26 -18 -7 -27 -16 -18 -21 23 -5
38 -15 53 -15 22 0 -12 -4 -22 -10 -22 -15 0 -12 36 5 50 19 15 21 91 3 89 -7
-1 -27 -7 -45 -13z m-155 -1014 c-11 -13 -9 -15 18 -9 17 3 36 1 41 -4 14 -14
80 -17 149 -8 60 8 97 0 54 -12 -14 -4 -41 -7 -60 -8 -62 -2 -231 -49 -255
-71 -12 -11 -29 -18 -37 -15 -9 4 -48 -10 -88 -30 -40 -20 -74 -35 -76 -32 -2
2 7 10 21 17 25 13 34 30 16 30 -5 0 -12 7 -15 16 -5 14 -4 15 9 4 10 -8 15
-9 15 -1 0 6 6 11 14 11 8 0 18 5 21 11 9 14 -4 27 -13 13 -5 -7 -13 -5 -26 7
-18 17 -18 18 2 12 12 -3 25 2 33 14 8 10 21 19 29 21 8 2 22 10 30 19 8 9 9
13 3 9 -8 -4 -13 -1 -13 7 0 12 15 15 70 15 62 -1 69 -3 58 -16z"/>
<path d="M2594 3967 c-2 -7 -3 -111 -2 -232 l3 -220 53 -3 52 -3 0 69 c0 55 4
75 21 96 11 14 24 26 28 26 5 0 39 -43 77 -95 l69 -95 64 0 63 0 -24 33 c-109
143 -169 229 -166 236 2 5 42 50 91 100 48 50 87 94 87 96 0 3 -27 5 -59 5
l-59 0 -96 -102 -96 -103 0 103 0 102 -50 0 c-32 0 -52 -5 -56 -13z"/>
<path d="M3060 3978 c0 -2 -1 -108 -3 -236 l-2 -232 53 0 52 0 0 235 0 235
-50 0 c-27 0 -50 -1 -50 -2z"/>
<path d="M3210 3930 l0 -50 70 0 70 0 0 -185 0 -185 55 0 55 0 0 185 0 185 70
0 70 0 0 50 0 50 -195 0 -195 0 0 -50z"/>
<path d="M3147 3063 c-25 -6 -39 -47 -27 -78 11 -29 53 -43 75 -25 12 10 15
10 15 -3 0 -23 -26 -38 -53 -32 -14 4 -28 2 -31 -4 -12 -19 62 -25 89 -7 22
15 25 23 25 81 0 61 -1 65 -22 64 -13 -1 -30 1 -38 3 -8 3 -23 4 -33 1z"/>
<path d="M3092 2793 c258 -2 678 -2 935 0 258 1 47 2 -467 2 -514 0 -725 -1
-468 -2z"/>
<path d="M2032 2676 c12 -9 14 -16 7 -23 -13 -13 16 -63 37 -63 8 0 17 -6 20
-14 3 -8 19 -18 35 -21 16 -4 42 -18 57 -31 15 -14 51 -45 80 -71 l52 -46 2
39 c2 49 -1 75 -8 94 -4 8 -8 28 -10 44 -5 33 -14 48 -14 23 0 -9 -7 -17 -15
-17 -8 0 -15 -5 -15 -11 0 -6 6 -9 13 -6 8 3 12 -7 13 -29 1 -36 -12 -46 -23
-16 -16 42 -82 100 -97 85 -3 -3 -20 5 -38 19 -33 24 -95 58 -107 58 -3 0 2
-6 11 -14z"/>
<path d="M610 2655 c-19 -7 -109 -53 -200 -102 -91 -48 -221 -117 -288 -153
l-122 -65 0 -77 c0 -47 4 -78 10 -78 6 0 35 13 65 29 41 22 55 26 55 15 0 -17
8 -17 40 1 14 8 19 14 12 15 -8 0 -2 11 13 27 14 15 25 33 25 40 0 39 116 96
147 71 8 -6 18 -3 32 11 12 12 26 21 32 21 6 0 55 26 107 57 53 32 121 66 150
76 55 18 82 37 82 56 0 5 7 11 16 13 10 2 0 13 -27 31 -48 30 -93 34 -149 12z"/>
<path d="M2820 2575 l0 -85 40 0 c52 0 98 24 110 56 15 38 12 50 -16 83 -23
28 -32 31 -80 31 l-54 0 0 -85z"/>
<path d="M3113 2643 c-3 -10 -19 -47 -35 -82 -15 -35 -28 -65 -28 -67 0 -2 9
-4 19 -4 11 0 23 9 26 20 5 15 15 20 45 20 30 0 40 -5 45 -20 3 -11 15 -20 26
-20 10 0 19 1 19 3 0 2 -15 39 -34 83 -26 58 -40 80 -55 82 -13 2 -24 -3 -28
-15z"/>
<path d="M3078 2373 c265 -2 699 -2 965 0 265 1 48 2 -483 2 -531 0 -748 -1
-482 -2z"/>
<path d="M377 2277 c4 -6 8 -23 9 -37 1 -14 0 -19 -3 -12 -2 6 -16 12 -30 12
-20 0 -24 -4 -19 -17 6 -17 5 -17 -7 -1 -19 25 -28 11 -14 -20 14 -32 28 -43
45 -37 18 7 15 -3 -11 -28 -29 -28 -46 -31 -40 -8 5 20 -22 37 -32 21 -4 -6
-16 -10 -27 -10 -19 0 -20 2 -6 18 8 9 18 25 21 35 4 9 12 17 18 17 8 0 8 4
-1 15 -7 8 -9 15 -6 15 4 0 0 7 -8 16 -20 19 -56 9 -56 -16 0 -10 -6 -21 -12
-24 -7 -3 1 -2 17 1 17 3 33 10 36 16 4 5 9 5 13 -2 4 -6 -4 -23 -17 -37 -21
-22 -26 -24 -38 -11 -15 15 -53 11 -43 -5 4 -6 -5 -2 -19 7 -26 16 -27 16 -51
-12 -14 -15 -26 -36 -26 -45 0 -27 10 -21 21 12 11 29 29 41 29 18 0 -6 3 -8
6 -5 4 3 16 1 28 -5 11 -7 29 -11 39 -9 13 2 17 -5 17 -28 0 -22 6 -31 23 -37
12 -4 25 -11 28 -16 4 -6 14 -6 28 1 25 14 27 5 4 -21 -15 -17 -15 -18 6 -18
12 0 19 4 16 10 -3 6 -1 10 4 10 6 0 11 -4 11 -10 0 -5 9 -10 19 -10 11 0 22
-4 25 -9 4 -5 -3 -7 -14 -4 -11 3 -20 0 -20 -6 0 -6 5 -11 11 -11 5 0 7 -5 3
-11 -4 -7 -9 -8 -13 -1 -3 5 -15 6 -27 1 -24 -8 -41 -29 -25 -29 6 0 11 -4 11
-10 0 -5 -7 -10 -15 -10 -10 0 -15 10 -15 31 0 18 -4 28 -10 24 -6 -4 -8 -11
-5 -16 4 -5 -1 -9 -10 -9 -13 0 -14 4 -5 20 8 15 8 18 -3 14 -8 -3 -17 2 -21
11 -3 9 0 18 9 21 23 9 18 26 -7 22 -17 -2 -23 2 -22 15 1 9 -2 17 -7 17 -6 0
-5 9 1 20 6 11 9 20 8 21 -2 0 -14 3 -28 5 -24 4 -24 4 -5 -11 11 -9 14 -14 8
-10 -15 7 -18 -21 -3 -30 18 -11 10 -23 -11 -18 -18 5 -20 3 -15 -15 11 -33
-3 -72 -26 -72 -13 0 -18 -6 -16 -17 2 -14 13 -17 56 -14 43 2 53 -1 58 -16
15 -44 29 -73 36 -73 5 0 8 5 8 10 0 12 27 13 34 1 8 -12 -4 -42 -14 -36 -4 3
-8 -5 -7 -18 0 -12 -3 -30 -8 -40 -7 -17 -3 -18 31 -15 31 2 39 -1 42 -15 3
-13 -3 -17 -22 -17 -19 0 -26 -5 -26 -20 0 -11 6 -23 14 -26 8 -3 17 -12 20
-20 4 -9 2 -12 -5 -8 -6 4 -15 0 -20 -7 -7 -11 -11 -11 -21 -1 -10 10 -10 15
2 22 13 8 8 24 -8 26 -4 0 -15 4 -25 9 -10 4 -21 4 -25 0 -4 -4 -1 -10 6 -12
13 -5 17 -33 4 -33 -4 0 -17 7 -29 15 -21 15 -53 11 -53 -6 0 -5 9 -9 19 -9
21 0 37 -17 26 -28 -3 -3 -9 -1 -13 5 -4 7 -22 10 -40 8 -22 -3 -32 0 -32 9 0
15 -28 26 -77 32 -27 2 -33 -1 -33 -17 0 -23 29 -54 58 -61 15 -4 22 -2 22 8
0 20 10 17 31 -11 11 -13 26 -22 33 -19 8 3 16 -3 19 -15 2 -10 15 -21 28 -24
l24 -4 -24 -2 c-18 -1 -22 -5 -18 -21 3 -12 1 -17 -5 -14 -5 3 -22 0 -39 -6
-22 -9 -32 -10 -43 -1 -10 9 -16 8 -26 -4 -7 -8 -23 -15 -36 -15 -21 0 -24 -5
-24 -36 0 -20 9 -48 20 -64 15 -21 17 -34 11 -57 -14 -48 -5 -129 17 -160 31
-44 59 -65 89 -69 45 -5 151 15 191 36 20 11 43 20 50 20 7 0 15 6 18 14 3 8
11 13 17 10 7 -2 39 21 72 51 32 30 60 55 61 55 2 0 18 -9 37 -20 30 -18 35
-19 41 -5 3 9 0 15 -9 15 -9 0 -15 10 -15 25 0 15 6 25 14 25 8 0 17 7 20 15
3 9 11 15 18 14 34 -4 50 2 44 16 -3 8 -2 15 3 15 5 0 11 8 14 18 2 9 8 24 11
33 6 13 2 16 -18 12 -15 -3 -33 0 -41 7 -8 6 -19 9 -24 6 -14 -9 -25 14 -13
26 6 6 8 17 5 26 -5 10 -2 13 6 8 8 -5 11 -3 10 5 -1 8 3 28 10 44 13 30 24
135 15 135 -3 0 -14 -5 -25 -10 -23 -13 -24 -3 -3 25 13 17 16 18 24 5 5 -8
10 -10 10 -4 0 5 -5 15 -12 22 -7 7 -14 67 -19 159 -7 146 -13 183 -30 183
-12 0 -11 -17 1 -25 18 -11 11 -25 -12 -22 -18 2 -25 -6 -35 -37 -12 -34 -11
-40 4 -51 12 -9 20 -10 24 -3 10 15 20 -7 13 -26 -7 -18 -24 -22 -24 -5 0 5
-5 7 -11 4 -6 -4 -17 1 -24 11 -14 18 -14 18 -15 1 0 -14 -5 -17 -20 -12 -16
5 -31 -3 -60 -33 -36 -36 -62 -41 -44 -9 4 6 4 9 -1 5 -4 -4 -14 -3 -22 3 -10
9 -13 8 -13 -1 0 -8 -7 -10 -22 -5 -13 4 -32 7 -43 6 -11 0 9 14 45 32 36 17
69 37 73 44 4 7 15 13 22 13 25 0 17 19 -10 26 -27 7 -33 20 -13 26 7 3 20 -5
30 -16 14 -17 19 -18 27 -7 6 9 16 11 27 7 18 -7 18 -8 0 -22 -15 -10 -17 -17
-9 -25 13 -13 58 25 48 41 -6 10 21 59 40 72 6 5 3 8 -7 8 -10 0 -18 -4 -18
-10 0 -5 -9 -10 -20 -10 -11 0 -20 5 -20 10 0 6 6 10 13 10 7 0 18 10 26 22
12 19 14 20 23 5 24 -44 49 -4 38 60 -6 38 -23 33 -34 -9 -7 -29 -26 -35 -62
-21 -16 6 -16 7 1 13 10 4 19 16 20 28 1 17 -4 22 -21 22 -13 0 -26 -5 -29
-11 -4 -6 -13 -8 -21 -5 -8 3 -14 0 -14 -7 0 -7 -7 -4 -15 6 -7 11 -11 25 -9
32 3 7 0 16 -5 20 -6 3 -8 12 -5 18 5 8 3 8 -7 0 -19 -18 -34 -16 -19 2 10 12
10 19 2 27 -16 16 -44 20 -35 5z"/>
<path d="M2727 2193 c-56 -63 -6 -171 66 -144 44 17 62 63 45 112 -17 49 -79
67 -111 32z"/>
<path d="M2940 2130 c0 -64 3 -80 15 -80 9 0 15 9 15 25 0 18 5 25 18 25 10 0
25 -11 32 -25 7 -14 22 -25 33 -25 18 0 19 1 2 26 -15 23 -15 27 -1 43 41 45
8 91 -65 91 l-49 0 0 -80z"/>
<path d="M3805 2185 c-32 -31 -32 -75 -1 -111 31 -37 84 -38 121 -4 54 51 16
140 -60 140 -25 0 -44 -8 -60 -25z"/>
<path d="M1074 1458 c-5 -23 -8 -51 -6 -60 2 -21 -9 -23 -25 -7 -24 24 -38 3
-35 -47 4 -42 6 -46 17 -30 13 17 14 17 24 -3 10 -17 9 -20 -4 -15 -8 4 -15 1
-15 -6 0 -7 -6 -10 -13 -7 -8 3 -14 0 -14 -6 -1 -26 -9 -42 -31 -60 -18 -15
-26 -17 -37 -7 -12 10 -15 9 -15 -4 0 -10 -4 -14 -10 -11 -5 3 -10 1 -10 -4 0
-16 -16 -13 -36 6 -13 13 -19 14 -22 5 -2 -7 -10 -18 -17 -26 -17 -16 -9 -27
13 -19 14 5 15 3 5 -8 -15 -16 -17 -59 -3 -59 6 0 10 -4 10 -10 0 -5 -7 -10
-16 -10 -8 0 -13 -4 -10 -9 3 -5 -1 -11 -9 -15 -8 -3 -15 -12 -15 -20 0 -7 -8
-17 -17 -21 -16 -6 -16 -8 4 -24 12 -10 18 -22 14 -27 -14 -15 -23 -80 -10
-67 12 12 52 5 43 -8 -3 -5 -9 -7 -14 -4 -5 3 -12 -6 -16 -20 -5 -21 -30 -45
-47 -45 -2 0 -3 26 -3 59 1 41 -3 57 -11 54 -7 -3 -13 7 -15 24 -4 34 -14 35
-53 5 -23 -18 -26 -25 -15 -32 8 -5 19 -3 27 6 19 19 29 18 13 -1 -10 -13 -9
-15 9 -15 20 0 25 -11 24 -47 -1 -7 3 -13 9 -13 5 0 6 -5 3 -10 -4 -6 -11 -7
-17 -4 -7 5 -9 0 -5 -15 4 -16 -1 -25 -24 -36 -16 -9 -31 -15 -34 -15 -23 1
-26 -2 -22 -14 4 -9 0 -12 -11 -10 -22 6 -57 -65 -47 -95 4 -12 2 -21 -4 -21
-6 0 -11 -5 -11 -11 0 -6 10 -9 23 -7 25 5 54 -17 37 -27 -6 -3 -14 -4 -18 -1
-5 3 -15 -4 -22 -14 -10 -13 -21 -18 -37 -14 -13 4 -23 2 -23 -5 0 -6 -7 -8
-15 -5 -8 4 -15 12 -15 20 0 8 -4 14 -10 14 -13 0 -13 -1 6 -38 8 -18 20 -32
26 -32 5 0 8 -5 6 -11 -2 -6 -7 -10 -12 -9 -21 4 -27 -32 -12 -73 9 -23 18
-64 21 -92 3 -27 7 -63 10 -80 3 -16 6 -36 7 -42 1 -7 10 -15 20 -19 10 -3 18
-12 18 -20 0 -8 5 -14 11 -14 6 0 9 -6 6 -12 -6 -18 41 -108 56 -108 8 0 7 -4
-3 -10 -10 -7 17 -10 86 -10 l102 0 38 73 c49 91 53 105 58 202 3 49 12 100
25 130 11 28 20 43 21 35 0 -8 7 -2 14 15 14 34 16 32 45 -55 12 -36 26 -72
32 -80 9 -13 10 -12 5 2 -7 23 -6 23 45 -6 23 -14 44 -31 45 -40 3 -20 -42
-51 -49 -33 -4 8 -6 8 -6 1 -1 -7 7 -22 18 -35 18 -22 21 -22 70 -11 66 15 81
15 81 0 0 -8 -18 -14 -47 -16 -54 -4 -67 -9 -55 -25 4 -7 9 -28 11 -47 3 -44
23 -61 59 -50 15 4 46 7 70 6 44 -1 48 3 32 35 -6 10 -7 19 -2 19 5 0 10 11
10 24 0 18 -8 26 -30 32 -34 10 -38 27 -8 32 19 3 24 13 21 40 -2 10 4 12 18
7 19 -6 21 -2 21 39 0 52 19 74 22 24 7 -112 7 -108 -23 -108 -34 0 -44 -13
-23 -30 8 -7 13 -19 10 -27 -3 -7 -1 -13 4 -13 6 0 10 5 10 11 0 5 5 7 11 3 8
-5 8 -8 0 -13 -12 -8 -9 -46 7 -98 6 -17 8 -34 4 -37 -3 -3 6 -6 19 -6 13 0
19 4 13 8 -15 10 -14 70 2 76 7 3 17 -8 23 -25 6 -17 15 -28 20 -25 5 4 12 0
14 -6 4 -10 8 -9 16 2 6 8 14 15 18 15 4 1 17 7 29 14 15 10 19 22 17 50 -1
20 1 51 6 68 13 45 -4 52 -42 17 -21 -20 -15 -10 19 35 77 99 82 107 64 97 -8
-5 -28 -19 -45 -31 -16 -12 -39 -27 -51 -33 -20 -10 -20 -10 -5 38 15 46 17
48 48 43 19 -3 40 0 53 10 34 24 70 79 70 106 -1 26 -1 26 -18 6 -28 -34 -95
-75 -122 -75 -14 0 -33 7 -43 15 -11 7 -25 11 -33 8 -10 -4 -12 0 -7 12 5 15
2 17 -15 13 -12 -4 -20 -2 -16 3 9 15 -13 10 -26 -7 -15 -17 -66 -15 -63 3 2
7 -4 10 -11 7 -20 -8 -9 -31 17 -38 15 -4 19 -8 11 -16 -15 -15 -39 -4 -55 26
-16 32 -119 99 -181 120 -51 17 -56 24 -33 48 8 8 15 19 15 25 0 6 4 11 8 11
5 0 23 42 41 93 32 94 34 117 27 287 -5 98 -5 100 -20 100 -22 0 -31 21 -15
34 21 17 21 40 0 97 -11 29 -18 62 -15 74 3 12 -2 41 -11 66 -9 24 -18 57 -19
72 -5 50 -23 53 -32 5z"/>
<path d="M3078 1043 c265 -2 699 -2 965 0 265 1 48 2 -483 2 -531 0 -748 -1
-482 -2z"/>
<path d="M13 673 c-10 -3 -13 -46 -13 -166 l0 -162 52 4 c56 3 61 -10 6 -16
-60 -6 -58 0 -58 -168 l0 -155 280 0 280 0 -80 158 c-44 86 -80 162 -81 167 0
6 -57 60 -126 120 -70 61 -143 126 -163 145 -64 62 -85 78 -97 73z"/>
<path d="M2260 632 c-71 -42 -68 -37 -85 -137 -5 -30 -5 -30 12 5 11 24 18 30
20 19 5 -20 37 -36 80 -42 30 -3 33 -1 39 30 8 42 -2 83 -21 83 -8 0 -15 5
-15 10 0 6 6 10 14 10 16 0 29 27 20 41 -8 13 -14 11 -64 -19z"/>
<path d="M2335 244 c-125 -124 -224 -228 -221 -231 3 -3 47 -5 98 -4 69 1 96
5 104 16 6 8 17 15 24 15 7 0 10 6 7 14 -3 8 1 17 9 20 9 3 12 11 8 18 -5 8
-2 9 10 5 13 -5 17 -3 13 7 -3 8 1 20 9 27 8 7 13 17 10 24 -2 6 5 17 16 24
11 7 17 19 14 27 -3 8 1 14 8 14 16 0 29 27 21 41 -4 5 1 6 11 2 13 -5 15 -2
10 14 -4 14 -1 23 9 27 8 3 15 12 15 21 0 8 7 15 16 15 8 0 13 4 9 9 -3 5 10
22 30 36 19 15 33 31 30 35 -6 10 22 23 53 25 28 1 29 -25 2 -50 -11 -10 -20
-24 -20 -31 0 -8 -11 -21 -25 -30 -14 -9 -22 -20 -19 -25 3 -5 0 -9 -5 -9 -6
0 -10 -3 -9 -7 2 -5 -8 -19 -20 -33 -23 -24 -101 -120 -170 -208 l-34 -42 271
0 272 0 -14 28 c-39 76 -97 297 -97 367 0 64 -2 65 -115 65 l-103 0 -227 -226z"/>
<path d="M4200 440 c-14 -16 -29 -30 -34 -30 -8 0 -46 -38 -46 -46 0 -2 8 0
18 3 25 10 -41 -62 -115 -124 -67 -57 -131 -86 -240 -108 -18 -4 -33 -11 -33
-16 0 -12 57 -12 65 1 4 6 11 8 16 5 5 -4 9 0 9 7 0 9 3 9 10 -2 9 -13 10 -13
10 0 0 13 2 13 9 1 5 -8 7 -21 4 -30 -4 -14 -3 -14 9 0 7 8 32 16 57 18 25 1
49 5 55 8 6 4 5 0 -2 -9 -10 -12 -10 -18 2 -27 11 -9 14 -8 12 6 0 12 7 19 22
21 13 2 22 10 22 21 0 25 23 43 44 35 11 -4 26 2 40 15 l23 21 18 -40 c10 -23
19 -57 19 -77 1 -39 12 -49 36 -33 12 8 12 12 2 18 -7 5 -16 26 -19 48 -4 21
-16 47 -27 57 -18 16 -18 18 -3 13 11 -3 16 -2 12 4 -12 19 6 68 26 73 12 3
17 11 13 20 -3 8 2 17 13 21 13 5 14 9 5 15 -16 10 -4 44 13 37 7 -2 19 4 28
15 9 10 25 19 34 19 10 0 14 4 8 8 -6 4 -16 19 -24 35 -21 40 -77 39 -111 -3z"/>
<path d="M2075 215 c-21 -62 -67 -104 -200 -177 l-50 -28 120 1 c66 1 112 3
103 6 -24 6 -23 19 1 26 19 5 46 71 35 88 -3 5 1 6 9 3 23 -8 25 18 6 61 -15
34 -19 37 -24 20z"/>
</g>
</svg>
