<?xml version="1.0" standalone="no"?>
<!DOCTYPE svg PUBLIC "-//W3C//DTD SVG 20010904//EN"
 "http://www.w3.org/TR/2001/REC-SVG-20010904/DTD/svg10.dtd">
<svg version="1.0" xmlns="http://www.w3.org/2000/svg"
 width="500.000000pt" height="500.000000pt" viewBox="0 0 500.000000 500.000000"
 preserveAspectRatio="xMidYMid meet">
<metadata>
Created by potrace 1.16, written by Peter Selinger 2001-2019
</metadata>
<g transform="translate(0.000000,500.000000) scale(0.100000,-0.100000)"
fill="#000000" stroke="none">
<path d="M1510 4994 c0 -2 10 -12 21 -23 12 -11 19 -26 16 -35 -3 -9 -1 -18 5
-22 7 -4 8 -3 4 4 -4 7 -2 12 4 12 7 0 14 -9 17 -20 3 -11 9 -20 14 -20 5 0 9
-9 9 -20 0 -11 5 -20 10 -20 6 0 10 5 10 11 0 14 -40 81 -54 91 -6 4 -7 10 -3
14 4 4 8 5 10 3 81 -116 164 -304 201 -459 31 -128 32 -423 1 -550 -55 -231
-170 -446 -312 -588 -40 -40 -73 -70 -73 -66 0 4 7 15 16 25 10 11 12 19 4 24
-6 4 -9 1 -8 -7 2 -8 -6 -12 -22 -11 -14 1 -18 0 -9 -3 23 -7 12 -44 -12 -44
-10 0 -20 -4 -23 -9 -4 -5 4 -7 16 -3 14 3 19 2 14 -7 -4 -6 -11 -9 -16 -6 -4
3 -13 -2 -20 -10 -8 -10 -23 -13 -42 -10 -32 6 -70 -18 -44 -28 7 -3 19 0 25
6 6 6 11 7 11 1 0 -5 -9 -15 -21 -22 -17 -11 -20 -11 -14 0 5 7 -2 3 -14 -9
-12 -13 -26 -23 -32 -23 -6 0 -7 -5 -3 -12 4 -6 3 -8 -4 -4 -6 3 -13 2 -17 -3
-3 -6 -12 -8 -20 -5 -8 4 -13 10 -10 14 9 15 -16 23 -28 10 -9 -9 -9 -14 -1
-17 7 -2 9 -14 6 -25 -5 -21 -6 -21 -13 -2 -7 18 -8 18 -8 -2 -1 -22 -18 -34
-47 -34 -9 0 -12 5 -9 10 3 6 1 10 -4 10 -6 0 -11 -9 -11 -20 0 -11 -4 -20 -9
-20 -5 0 -22 -5 -38 -12 -31 -12 -46 -17 -80 -24 -48 -9 -79 -15 -98 -19 -11
-2 -20 -4 -20 -5 0 -7 -163 -24 -235 -24 -142 1 -160 3 -160 19 0 10 -10 15
-30 15 -16 0 -39 9 -49 19 -11 11 -21 17 -24 15 -2 -3 -16 0 -31 6 -18 6 -25
6 -21 0 3 -6 13 -10 21 -10 8 0 14 -4 14 -10 0 -18 -18 -11 -38 14 -14 19 -22
22 -31 13 -8 -8 -11 -6 -12 9 0 11 -3 14 -6 6 -4 -10 -11 -8 -29 9 -13 12 -24
28 -24 36 0 7 -6 13 -12 13 -7 0 -2 7 10 16 24 17 43 11 25 -7 -6 -6 -8 -19
-6 -30 9 -35 20 -20 18 26 -1 45 -1 45 32 45 18 0 33 -5 33 -11 0 -6 -8 -8
-18 -5 -15 5 -18 0 -20 -34 -3 -35 0 -40 19 -40 12 0 23 8 26 20 3 11 11 20
17 20 7 0 18 11 26 24 7 14 18 22 26 19 8 -3 14 -1 14 3 0 5 -26 17 -58 28
-31 10 -100 39 -152 64 -52 26 -98 48 -102 50 -5 2 -8 -218 -8 -489 1 -358 4
-489 12 -481 6 6 11 21 12 34 0 13 6 23 13 23 6 0 15 3 19 7 4 4 14 2 22 -5
13 -10 14 -9 10 3 -2 8 5 22 16 32 18 14 19 19 7 30 -9 8 -11 8 -7 1 4 -7 -3
-17 -15 -24 -20 -10 -21 -10 -8 9 16 21 73 72 83 72 4 0 4 -11 2 -24 -3 -15 1
-27 10 -30 9 -3 14 1 14 14 0 10 4 21 10 25 5 3 7 12 4 19 -3 8 -1 17 5 21 7
3 11 -2 11 -14 0 -23 32 -45 46 -31 5 4 25 12 44 17 19 5 35 14 35 20 0 6 4
15 8 20 12 11 137 11 130 -1 -4 -5 1 -7 10 -3 10 3 17 2 17 -3 0 -6 -8 -11
-17 -11 -10 -1 -4 -5 12 -10 28 -8 27 -8 -8 -4 -20 2 -35 0 -32 -5 3 -5 -15
-12 -39 -15 -32 -5 -43 -11 -39 -21 3 -10 -5 -16 -26 -20 -48 -10 -37 -22 27
-30 68 -8 72 -9 95 -19 9 -4 33 -5 52 -3 20 2 35 0 35 -7 0 -5 5 -3 10 5 5 8
10 12 10 8 0 -4 12 -1 27 7 19 10 32 11 46 3 14 -7 17 -7 13 1 -5 7 2 11 17
11 14 0 31 8 38 17 12 15 12 16 -1 8 -11 -5 -12 -5 -5 3 17 19 148 12 160 -8
3 -5 21 -6 40 -3 25 4 35 2 35 -7 0 -10 -18 -11 -75 -7 -41 4 -75 3 -75 -1 1
-30 71 -53 128 -41 20 4 55 1 85 -7 28 -7 69 -11 91 -9 94 10 295 14 354 6 34
-4 62 -4 62 1 0 4 9 8 20 8 12 0 32 7 45 16 17 11 29 13 38 6 8 -6 35 -6 80 0
57 9 70 8 80 -5 7 -8 21 -19 32 -25 18 -10 17 -11 -12 -12 -33 0 -54 -17 -31
-24 7 -3 47 -7 89 -11 70 -6 78 -9 88 -32 11 -24 9 -29 -19 -55 -35 -32 -40
-34 -40 -14 0 8 7 16 15 20 19 7 19 22 0 30 -9 3 -20 -4 -29 -21 -13 -26 -14
-26 -20 -5 -8 23 -28 31 -24 10 2 -7 -7 -14 -19 -16 -24 -4 -40 -32 -18 -32 8
0 15 -4 15 -10 0 -6 -17 -8 -39 -5 -22 3 -42 1 -46 -5 -7 -12 -35 -1 -35 14 0
8 13 12 34 11 25 -2 33 2 29 12 -3 7 -9 13 -15 13 -5 0 -7 4 -4 9 3 5 15 7 25
4 10 -3 22 0 25 6 5 7 -6 11 -31 12 -26 0 -32 3 -20 8 17 6 16 8 -8 21 -22 12
-28 12 -42 -3 -16 -16 -16 -17 2 -18 20 0 20 -1 0 -9 -11 -5 -14 -9 -7 -9 19
-1 14 -21 -5 -22 -10 0 -13 -3 -6 -5 7 -3 9 -12 6 -20 -5 -13 -7 -13 -14 -2
-6 8 -9 1 -9 -21 l0 -34 -26 28 c-19 21 -28 25 -34 15 -6 -10 -13 -9 -34 6
-14 11 -23 25 -21 31 6 18 -39 27 -64 13 -13 -6 -21 -21 -21 -35 0 -14 -4 -25
-10 -25 -16 0 -12 -27 5 -34 8 -3 15 -17 15 -31 0 -27 10 -31 39 -16 25 14 47
-2 27 -19 -9 -7 -14 -16 -11 -20 2 -4 -3 -7 -13 -7 -41 0 -52 -4 -52 -18 0 -9
6 -12 15 -9 10 4 15 0 15 -10 0 -24 -33 -16 -42 9 -6 19 -6 19 -7 -1 -1 -12
-9 -25 -18 -28 -13 -5 -14 -9 -5 -15 7 -4 42 -1 78 6 44 9 71 10 83 4 10 -6
21 -8 24 -5 3 3 12 2 19 -2 7 -5 27 -9 44 -10 41 -1 95 -24 88 -36 -3 -5 -13
-8 -22 -6 -10 1 -23 -1 -31 -6 -9 -6 -18 -3 -27 9 -8 10 -17 16 -20 12 -4 -4
-1 -13 6 -22 10 -13 9 -15 -9 -15 -11 0 -21 5 -21 11 0 6 -5 7 -12 2 -7 -4
-21 -6 -30 -5 -9 2 -21 -6 -27 -16 -6 -11 -22 -23 -36 -26 -14 -4 -25 -11 -25
-16 0 -5 6 -7 14 -4 8 3 17 1 20 -4 3 -5 18 -8 33 -6 16 2 33 -4 42 -15 14
-16 32 -18 126 -17 61 0 135 -2 165 -6 l55 -8 -50 14 -50 14 60 -5 c116 -9
160 -13 215 -22 46 -7 49 -9 20 -10 -28 -2 -31 -4 -15 -10 14 -6 2 -10 -40
-14 -33 -3 -61 -11 -63 -17 -3 -8 -8 -7 -18 1 -8 6 -25 9 -39 7 -14 -3 -25 -2
-25 1 0 12 -72 33 -80 25 -5 -5 -10 -33 -13 -62 -3 -29 -7 -56 -10 -59 -4 -3
3 -13 15 -23 14 -11 21 -29 22 -56 l1 -39 46 -2 c55 -2 72 -6 79 -15 4 -4 38
-14 78 -21 62 -12 72 -12 72 0 0 8 4 12 9 9 5 -3 15 1 22 10 12 14 14 14 20
-3 6 -15 8 -15 8 -2 1 15 5 14 41 -3 74 -37 70 -69 70 508 l0 516 -35 -26
c-39 -30 -124 -41 -153 -20 -9 7 -29 10 -43 7 -17 -3 -44 5 -78 22 -57 30 -77
55 -58 74 15 15 -5 9 -78 -23 -66 -29 -244 -36 -265 -11 -9 11 -15 13 -20 4
-17 -27 -110 37 -110 75 0 28 -19 86 -29 86 -13 0 -30 64 -32 115 -1 28 -2 69
-2 92 -2 49 27 96 62 101 15 2 24 13 28 33 3 16 10 32 14 35 5 3 9 14 9 25 0
10 9 28 20 39 11 11 20 22 20 25 0 8 70 68 95 82 12 7 28 27 36 45 36 88 86
135 164 153 42 10 59 10 91 -1 35 -12 40 -11 59 6 26 24 97 27 138 6 38 -21
34 -9 -13 31 -44 38 -51 70 -23 98 15 16 15 17 -8 13 -19 -2 -24 1 -22 17 1
11 -3 23 -10 27 -17 11 -17 149 1 171 20 23 31 22 61 -7 25 -23 132 -66 166
-66 12 0 15 12 15 55 l0 55 -51 0 c-29 0 -69 5 -91 12 -36 10 -38 14 -33 40 4
15 3 28 -2 28 -9 0 -43 72 -43 91 0 12 31 71 42 79 4 3 14 22 22 41 10 23 28
42 53 55 20 10 52 34 70 53 32 32 33 37 33 112 0 75 -1 79 -22 79 -13 0 -29 4
-37 9 -12 8 -13 12 -1 26 10 12 10 19 2 27 -7 7 -12 30 -12 53 0 24 -8 50 -20
65 -25 31 -26 11 -4 -47 19 -49 15 -60 -16 -43 -11 6 -29 9 -39 5 -10 -3 -24
1 -31 10 -7 8 -19 15 -27 15 -7 0 -16 7 -19 14 -3 8 -37 27 -75 41 -38 15 -71
31 -75 36 -3 5 -17 9 -31 9 -14 0 -44 14 -67 31 -23 16 -81 57 -131 89 -49 33
-90 65 -90 71 0 7 -12 25 -26 40 -19 20 -35 27 -62 27 -20 0 -37 -2 -37 -4z
m524 -2729 c3 -8 3 -21 0 -29 -3 -8 5 -17 23 -24 15 -5 43 -23 60 -39 29 -25
33 -35 36 -85 l3 -58 -37 0 c-21 0 -40 -6 -42 -12 -3 -8 -6 -5 -6 5 -1 10 -6
15 -12 12 -18 -11 -79 5 -79 20 0 8 -7 15 -15 15 -17 0 -20 16 -5 25 15 9 12
45 -4 45 -8 0 -19 14 -25 30 -6 18 -17 30 -28 31 -14 0 -15 2 -3 6 8 3 23 14
33 24 10 11 27 19 38 19 11 0 22 7 25 15 4 8 12 15 19 15 7 0 15 -7 19 -15z"/>
<path d="M2630 4990 c8 -5 11 -12 7 -16 -4 -4 2 -13 13 -21 11 -8 20 -19 20
-25 0 -6 -9 -3 -20 7 -11 10 -20 13 -20 7 0 -7 -7 -12 -15 -12 -9 0 -12 -6 -8
-17 5 -13 2 -15 -13 -10 -17 6 -17 6 -3 -6 22 -17 7 -62 -18 -53 -16 6 -16 5
0 -12 15 -16 15 -21 4 -30 -8 -7 -18 -8 -22 -4 -5 4 -5 1 -1 -5 4 -7 14 -13
22 -13 17 0 17 -10 0 -32 -7 -10 -16 -15 -20 -11 -4 4 -4 0 0 -10 4 -12 -2
-26 -20 -44 -14 -14 -24 -29 -20 -32 3 -3 21 12 40 34 34 40 44 41 23 3 -15
-28 2 -44 30 -29 20 11 31 -1 12 -14 -5 -3 -12 -18 -16 -34 -6 -29 -7 -29 -86
-33 -44 -2 -83 -8 -87 -14 -4 -6 -16 -15 -27 -20 -22 -10 323 -19 363 -9 l23
6 -23 24 c-15 16 -27 21 -38 15 -22 -12 -110 0 -110 15 0 6 9 20 20 30 11 10
20 26 20 36 0 21 17 34 22 18 2 -6 12 6 23 27 11 20 27 39 35 42 11 3 10 1 -2
-9 -23 -18 -17 -55 8 -51 18 2 17 1 -2 -16 -11 -9 -20 -25 -18 -35 1 -9 -3
-15 -8 -14 -6 1 -13 -4 -15 -11 -11 -28 48 9 60 38 4 11 6 9 6 -5 1 -17 3 -17
11 -5 5 8 10 10 10 5 0 -6 -5 -16 -12 -23 -9 -9 -7 -12 9 -12 12 0 25 5 28 10
14 23 32 9 33 -27 1 -20 6 -41 12 -47 7 -7 71 -11 179 -10 159 1 170 2 200 24
17 13 31 30 31 37 0 7 7 13 15 13 8 0 20 10 26 22 6 12 16 27 21 32 5 6 15 20
23 31 9 12 13 14 10 4 -3 -9 1 -22 10 -29 12 -10 15 -10 15 4 0 9 5 16 11 16
6 0 9 -6 6 -12 -2 -7 0 -24 5 -37 7 -20 6 -23 -11 -18 -13 3 -18 1 -15 -8 7
-18 -37 -69 -47 -53 -4 6 -3 22 2 35 12 32 11 53 -1 53 -12 0 -25 -31 -33 -81
l-5 -35 53 0 c29 1 48 4 42 8 -8 5 -6 8 6 8 9 0 17 -4 17 -10 0 -5 12 -10 26
-10 14 0 23 3 21 8 -3 4 34 4 81 1 125 -8 865 -4 880 5 6 4 12 2 12 -3 0 -13
77 -15 85 -2 3 5 18 7 33 3 15 -4 69 -6 120 -6 l92 1 0 -626 0 -627 38 4 37 4
-37 -28 c-24 -19 -37 -37 -38 -53 0 -20 4 -23 30 -19 17 3 33 1 36 -4 3 -4
-11 -8 -30 -8 -34 0 -36 -2 -36 -32 0 -26 12 -44 59 -93 33 -33 85 -98 115
-144 l57 -85 -1 381 c-1 349 -3 382 -18 386 -15 4 -15 5 1 6 16 1 17 29 17
445 0 244 -3 451 -6 460 -3 9 -10 14 -14 11 -5 -3 -6 4 -3 15 3 11 9 20 14 20
14 0 11 68 -3 73 -10 4 -10 7 0 18 18 19 16 317 -2 342 -12 16 -57 17 -683 17
-624 0 -671 -1 -690 -17 -11 -10 -23 -28 -27 -41 -10 -30 -17 -22 -26 25 l-8
38 -1 -33 c0 -18 -6 -41 -13 -51 -11 -18 -13 -18 -25 -3 -10 14 -12 15 -13 2
0 -9 -10 -24 -21 -34 l-22 -18 8 48 c6 46 6 47 -12 33 -17 -13 -17 -13 -4 4
11 13 17 15 28 6 11 -9 12 -9 8 4 -4 8 -1 18 6 23 8 5 10 3 4 -7 -7 -11 -5
-11 11 1 10 8 21 16 23 17 3 2 -133 3 -302 2 -285 -2 -305 -3 -297 -19 6 -10
19 -16 33 -15 13 2 34 -5 47 -15 20 -15 21 -17 4 -16 -10 2 -27 5 -36 9 -40
15 -47 15 -65 -5 -10 -12 -13 -19 -8 -15 6 3 12 -4 12 -16 2 -16 0 -18 -7 -8
-6 11 -12 5 -24 -22 -8 -20 -20 -37 -27 -37 -7 0 -5 9 7 23 18 21 18 21 -8 -1
-25 -23 -30 -43 -14 -59 4 -4 6 -3 4 2 -1 6 0 11 5 13 16 5 27 2 27 -9 0 -5
-4 -8 -9 -4 -5 3 -12 1 -16 -4 -3 -6 -15 -7 -28 -2 -12 4 -28 6 -34 4 -16 -6
-17 13 -1 23 7 5 8 3 3 -7 -8 -12 -6 -12 8 0 17 14 24 26 9 17 -5 -3 -18 8
-30 24 -13 17 -18 31 -12 35 6 3 10 -1 10 -9 0 -19 8 -20 40 -1 25 14 25 14 3
15 -42 0 -24 31 27 48 l35 11 -36 -5 c-44 -7 -58 9 -27 30 22 16 21 16 -20 16
-38 0 -42 -2 -42 -25 0 -20 -5 -25 -25 -25 -14 0 -25 6 -26 13 0 6 -4 3 -9 -8
-8 -19 -9 -19 -9 3 -1 13 -5 20 -11 17 -5 -3 -10 1 -10 9 0 11 -9 16 -27 16
-21 0 -24 -3 -13 -10z"/>
<path d="M2600 3945 l0 -235 55 0 56 0 -3 70 c-2 65 0 73 25 97 14 15 28 25
30 22 2 -2 34 -46 71 -96 l68 -93 59 0 c32 0 59 2 59 5 0 4 -139 196 -181 251
-5 6 29 50 87 112 l96 102 -64 0 -63 -1 -90 -97 c-49 -53 -92 -96 -94 -94 -3
1 -6 39 -6 85 -1 45 -2 88 -3 95 -1 8 -20 12 -52 12 l-50 0 0 -235z"/>
<path d="M3060 3946 l0 -236 55 0 55 0 -2 233 -3 232 -52 3 -53 3 0 -235z"/>
<path d="M3220 4130 l0 -50 70 0 70 0 0 -185 0 -185 50 0 50 0 0 185 0 185 76
0 75 0 -3 48 -3 47 -192 3 -193 2 0 -50z"/>
<path d="M3083 3203 c269 -2 705 -2 970 0 265 1 46 2 -488 2 -533 0 -750 -1
-482 -2z"/>
<path d="M2834 3061 c-12 -8 -12 -154 -1 -162 5 -4 30 -5 56 -3 122 11 122
157 0 168 -26 2 -51 1 -55 -3z"/>
<path d="M3121 3048 c-5 -13 -21 -49 -35 -82 -14 -32 -26 -62 -26 -66 0 -13
38 1 44 16 8 20 73 18 84 -3 6 -9 17 -18 27 -19 21 -3 16 19 -24 110 -32 69
-55 84 -70 44z"/>
<path d="M3083 2773 c269 -2 705 -2 970 0 265 1 46 2 -488 2 -533 0 -750 -1
-482 -2z"/>
<path d="M4967 2150 c4 -21 2 -30 -7 -30 -10 0 -10 -3 0 -15 10 -12 10 -18 0
-30 -6 -8 -9 -19 -5 -25 3 -5 1 -10 -5 -10 -6 0 -10 -8 -9 -17 2 -17 -3 -33
-36 -108 -7 -16 -16 -43 -18 -60 -8 -45 -90 -215 -104 -215 -10 0 -13 -53 -13
-231 l0 -231 31 7 c17 4 40 16 50 26 10 10 22 19 27 20 43 6 81 10 100 11 l23
0 -2 440 c-1 362 -4 445 -16 469 -19 37 -24 37 -16 -1z"/>
<path d="M104 2082 c8 -23 -3 -29 -20 -12 -6 6 -17 -5 -31 -33 -58 -116 -56
-104 -51 -255 2 -94 8 -146 16 -154 6 -6 12 -19 12 -28 0 -8 10 -20 21 -25 20
-9 42 -55 56 -112 3 -13 9 -23 14 -23 4 0 13 -9 19 -21 10 -18 2 -29 -64 -98
l-76 -77 0 -622 1 -622 70 0 c67 0 70 1 64 21 -6 19 -4 21 19 15 22 -5 26 -3
26 14 0 11 -5 20 -11 20 -6 0 -9 -7 -5 -15 4 -12 2 -13 -14 -2 -21 12 -26 35
-12 53 4 5 -3 -1 -15 -14 -27 -27 -30 -17 -7 17 13 17 14 25 5 34 -9 9 -11 8
-6 -5 4 -10 3 -18 -3 -18 -5 0 -12 8 -16 18 -3 9 -11 24 -17 33 -9 12 -6 21
15 44 14 15 26 31 26 35 0 4 -16 15 -35 24 -38 18 -42 25 -23 44 18 18 26 14
30 -15 2 -14 9 -28 16 -31 8 -2 10 3 6 15 -5 14 -4 15 4 3 6 -8 8 -18 5 -23
-3 -5 0 -7 8 -5 8 3 13 15 11 28 -2 13 1 20 6 16 6 -4 13 -2 17 4 3 5 -1 10
-9 10 -17 0 -31 18 -21 28 3 3 9 1 13 -5 5 -8 13 -9 22 -3 8 5 12 11 9 14 -12
12 -111 15 -131 5 -13 -7 -24 -7 -30 -1 -13 13 18 72 38 72 8 0 13 4 10 9 -4
5 0 11 6 14 18 6 50 -12 43 -24 -4 -5 6 -14 20 -19 33 -13 55 -13 35 0 -8 5
-15 15 -16 22 0 7 -2 21 -2 31 -2 14 -7 17 -22 12 -15 -5 -18 -3 -14 9 4 10
-2 16 -18 19 -20 4 -20 4 5 6 16 0 26 5 22 11 -3 6 -2 10 4 10 6 0 -3 25 -20
55 -21 38 -25 53 -14 49 8 -3 15 -10 15 -14 0 -4 6 -10 12 -13 8 -3 13 4 13
18 0 12 -5 21 -11 18 -5 -2 -19 6 -30 18 -10 13 -13 19 -6 15 13 -8 16 3 6 28
-3 9 -14 16 -23 16 -14 1 -13 3 3 15 11 8 27 15 36 15 13 0 16 9 15 40 -1 22
2 40 7 40 5 0 6 5 3 10 -3 6 -2 10 2 10 8 0 32 49 39 79 1 8 10 18 18 23 8 5
13 15 10 22 -3 8 4 24 15 35 12 12 21 25 21 31 0 5 3 9 8 7 11 -3 47 37 50 58
2 11 10 28 18 39 12 17 14 18 14 4 0 -20 23 -15 53 10 22 20 22 27 -5 53 l-23
22 27 -5 c17 -3 29 0 32 9 4 9 1 11 -5 7 -7 -4 -10 -1 -7 7 3 8 15 16 27 17
13 2 26 12 28 23 3 10 9 17 13 14 12 -7 41 6 35 16 -3 4 10 11 30 15 19 3 32
10 29 15 -3 5 1 6 9 4 7 -3 22 3 32 15 11 13 31 20 52 20 26 0 36 5 40 20 6
22 44 27 87 11 17 -7 26 -7 28 1 2 6 23 13 47 15 23 2 51 7 61 13 38 20 298
-11 341 -41 14 -10 28 -16 31 -14 11 11 155 -48 221 -91 104 -67 126 -85 200
-154 44 -41 89 -88 101 -106 73 -107 96 -145 96 -159 0 -9 7 -23 15 -31 19
-20 19 -34 0 -34 -8 0 -15 -5 -15 -11 0 -6 8 -8 18 -5 21 7 46 -29 57 -84 4
-19 11 -41 15 -50 28 -55 51 -406 29 -435 -4 -5 -12 -39 -19 -75 -6 -36 -20
-85 -31 -109 -24 -54 -24 -53 3 -49 12 2 23 11 24 23 10 69 15 89 25 101 6 8
9 23 6 34 -3 11 -1 22 4 25 4 3 8 18 8 33 3 237 10 424 15 429 4 4 12 1 17 -7
8 -11 8 -9 3 10 -7 24 -6 24 19 7 19 -12 27 -13 31 -4 3 7 7 3 11 -10 4 -13
11 -23 16 -23 5 0 12 -18 15 -40 4 -22 11 -40 15 -40 5 0 7 -10 4 -22 -2 -13
0 -39 5 -58 9 -35 9 -34 7 12 -2 43 8 57 25 33 16 -22 16 7 -2 110 -18 106
-41 198 -60 240 -4 11 -20 46 -34 77 -35 82 -23 72 19 -14 133 -273 158 -608
69 -901 -5 -16 27 -17 615 -17 479 0 621 3 624 13 4 9 6 9 6 0 1 -10 31 -13
119 -13 112 1 116 1 97 18 -11 9 -20 23 -19 30 1 6 2 24 3 38 1 31 17 23 36
-19 l15 -32 -6 30 c-7 36 -7 35 -5 60 l2 20 15 -20 c16 -20 16 -20 10 1 -4 14
0 27 14 39 20 18 20 17 14 -26 -3 -24 -7 -50 -9 -57 -3 -7 0 -10 5 -7 6 3 10
1 10 -4 0 -11 27 9 60 42 12 12 20 15 25 8 3 -6 1 -11 -5 -11 -6 0 -8 -4 -5
-10 3 -5 -1 -20 -9 -32 -13 -19 -16 -19 -22 -5 -3 9 -10 14 -15 11 -13 -8 -11
-24 4 -21 6 1 11 -4 9 -11 -5 -26 23 -5 46 34 15 24 22 31 19 17 -6 -27 1 -29
31 -7 12 8 26 13 30 10 5 -3 7 9 5 27 -2 28 -2 29 5 7 5 -15 11 -20 15 -13 4
6 16 9 27 6 16 -4 18 -8 9 -19 -6 -8 -8 -14 -3 -15 5 0 -4 -7 -21 -14 -16 -8
-24 -14 -17 -15 25 0 11 -19 -24 -32 l-37 -13 29 -6 c16 -4 264 -7 552 -8
l522 -1 0 270 0 270 -21 -21 -22 -22 -17 23 c-17 22 -17 22 -22 3 -4 -16 -13
-20 -41 -18 -20 2 -40 6 -46 9 -5 3 -11 -1 -15 -9 -3 -8 -14 -15 -25 -15 -11
0 -21 -4 -23 -9 -1 -4 -187 -11 -413 -14 -225 -3 -411 -6 -413 -6 -2 -1 -1
-22 1 -49 2 -30 7 -46 15 -45 7 2 12 -2 12 -8 0 -21 -25 -2 -39 29 -8 18 -21
32 -28 32 -7 0 -13 9 -13 20 0 15 -7 20 -27 21 -16 1 -43 2 -60 4 -20 2 -33
-2 -33 -9 0 -6 -4 -5 -9 3 -7 11 -30 13 -122 6 -63 -4 -130 -6 -149 -6 -153 6
-409 4 -425 -3 -33 -15 -43 -15 -49 0 -7 19 -36 6 -36 -16 0 -11 -5 -22 -10
-25 -6 -4 -8 -11 -5 -16 4 -5 1 -9 -4 -9 -12 0 -14 13 -4 24 4 3 8 15 10 26 2
17 -3 20 -35 19 -20 0 -31 -3 -24 -6 14 -6 16 -33 2 -33 -5 0 -10 -9 -10 -19
0 -11 -8 -22 -19 -26 -22 -7 -53 4 -45 16 5 9 -8 13 -36 10 -13 -2 -13 -1 0 8
12 8 11 13 -7 33 -22 23 -27 23 -160 21 -76 -2 -151 -3 -168 -4 -30 -1 -30 -1
-5 -10 17 -6 5 -7 -34 -3 -87 9 -105 17 -99 48 4 21 2 26 -16 26 -21 0 -29 24
-11 35 6 3 10 -1 10 -10 0 -9 5 -13 10 -10 6 3 10 26 10 50 0 40 -2 44 -26 47
-25 3 -29 11 -56 108 -16 58 -47 142 -69 188 -21 46 -39 84 -39 86 0 11 54
-10 72 -29 20 -20 98 -65 113 -65 3 0 5 17 5 37 0 28 -7 43 -27 60 l-28 23 27
-10 c26 -9 27 -8 24 25 -1 20 -12 44 -24 55 -13 13 -19 26 -15 37 4 11 -1 9
-17 -7 l-23 -23 34 -28 c19 -16 29 -29 22 -29 -6 0 -18 6 -25 13 -21 21 -48
28 -41 11 6 -15 -12 -20 -22 -4 -3 5 -12 7 -19 4 -7 -3 -21 2 -30 11 -9 9 -16
12 -16 6 0 -7 -11 -9 -27 -5 -32 7 -87 60 -78 75 4 5 2 8 -3 7 -11 -4 -62 55
-62 71 0 6 5 11 11 11 5 0 8 4 4 10 -3 5 -13 6 -21 3 -17 -6 -127 94 -118 109
3 5 1 7 -4 6 -11 -4 -223 134 -241 156 -11 14 -11 16 3 16 10 0 15 4 11 10 -3
5 -12 7 -20 4 -10 -4 -13 0 -10 15 2 13 0 19 -6 15 -7 -4 -9 1 -7 12 2 11 11
18 20 16 8 -1 21 5 28 13 14 17 35 21 24 4 -5 -8 -1 -8 14 0 14 7 23 8 27 1 3
-5 13 -10 21 -10 8 0 12 5 9 10 -3 6 1 10 9 10 9 0 15 5 14 12 -4 14 27 22 50
13 13 -5 14 -8 3 -14 -9 -6 -5 -8 12 -8 23 0 24 2 20 41 -7 64 -9 66 -42 60
-23 -5 -32 -2 -40 15 -7 12 -19 21 -27 21 -12 0 -15 -11 -13 -53 3 -67 -2 -75
-42 -69 -28 4 -30 7 -25 34 5 24 2 30 -18 38 -13 5 -27 15 -30 22 -3 7 -3 2 0
-12 6 -24 6 -24 -13 -7 -11 9 -25 17 -32 17 -7 0 -11 6 -8 13 4 10 -14 6 -56
-11 -49 -20 -72 -23 -119 -19 -67 6 -95 21 -134 72 -21 27 -28 49 -30 90 -1
30 -6 60 -10 66 -4 7 1 18 11 26 11 7 14 13 9 13 -5 0 -25 -13 -44 -29 -28
-23 -31 -29 -15 -28 18 2 20 -5 23 -73 2 -41 7 -79 12 -85 5 -6 5 -17 0 -25
-6 -9 -5 -17 3 -22 9 -6 9 -12 0 -27 -11 -17 -10 -21 7 -26 11 -4 18 -10 15
-15 -3 -5 5 -11 17 -13 13 -3 -6 -2 -42 1 -36 4 -139 7 -230 6 -130 -1 -184
-5 -256 -22 -50 -12 -98 -24 -107 -28 -9 -3 -17 -2 -17 2 0 13 63 48 80 45 8
-2 3 6 -10 18 -22 17 -22 20 -7 21 11 0 17 5 14 13 -2 6 -11 11 -18 9 -9 -1
-8 3 4 11 25 21 21 27 -14 20 -29 -6 -31 -5 -20 15 13 25 -5 48 -47 59 -14 3
-36 11 -48 18 -18 9 -37 9 -85 -1 -51 -10 -64 -10 -75 0 -7 8 -11 15 -9 17 2
2 -17 5 -43 7 -25 2 -49 5 -54 8 -17 11 -7 40 24 66 31 26 32 28 16 45 -14 13
-21 14 -29 6 -9 -9 -20 -9 -46 2 -19 8 -40 14 -46 12 -7 -1 -11 4 -10 11 2 6
-4 12 -12 12 -8 0 -15 6 -15 14 0 7 -7 20 -16 27 -15 12 -16 11 -10 -9z"/>
<path d="M845 2075 c-5 -11 -11 -22 -14 -25 -13 -11 -31 -51 -31 -69 0 -11 -5
-21 -11 -23 -6 -2 -13 -16 -14 -30 -2 -15 -6 -32 -10 -39 -6 -8 1 -10 23 -7
25 3 33 0 41 -19 11 -24 35 -31 46 -12 5 6 22 8 48 4 38 -7 40 -6 25 9 -9 9
-22 32 -28 51 -6 19 -16 35 -20 35 -15 0 -32 41 -40 94 -5 40 -8 47 -15 31z"/>
<path d="M990 950 c0 -5 -7 -10 -15 -10 -8 0 -15 -6 -15 -14 0 -8 -6 -16 -14
-19 -30 -12 -28 -56 5 -114 36 -63 39 -62 88 30 35 66 37 79 15 102 -15 14
-17 14 -29 -1 -10 -14 -14 -14 -20 -4 -5 9 -4 15 3 18 17 5 15 22 -3 22 -8 0
-15 -4 -15 -10z"/>
<path d="M3083 823 c269 -2 705 -2 970 0 265 1 46 2 -488 2 -533 0 -750 -1
-482 -2z"/>
</g>
</svg>
